<svg xmlns="http://www.w3.org/2000/svg" pointer-events="none" class="leaflet-zoom-animated" width="1102" height="696" viewBox="-92 -58 1102 696" style="transform: translate3d(-92px, -58px, 0px);"><g><path class="leaflet-interactive" stroke="#201920" stroke-opacity="1" stroke-width="2" stroke-linecap="round" stroke-linejoin="round" fill="none" d="M287 260L285 256L288 253L287 252L291 248L293 248L293 246L294 247L297 245L298 248L302 248L305 242L310 243L310 241L311 242L317 237L324 234L324 227L327 226L324 214L321 213L326 210L327 211L331 209L337 209L335 205L340 193L345 196L354 195L354 185L361 181L361 177L367 177L366 180L368 180L368 182L370 184L371 183L372 186L379 188L382 191L385 198L383 208L386 211L387 210L392 212L400 212L407 218L410 217L409 218L415 230L441 230L457 237L461 236L462 238L477 232L489 232L494 230L504 221L501 218L502 213L504 211L513 214L520 208L523 209L526 207L530 201L534 201L540 197L544 197L543 198L544 197L546 199L549 198L548 193L542 187L539 186L535 190L533 188L529 188L527 190L524 186L526 185L531 171L537 174L541 170L546 169L546 163L550 155L554 151L554 147L550 145L555 139L556 140L563 137L571 137L577 141L580 140L584 144L586 148L585 149L587 151L586 152L589 157L588 158L592 164L591 167L593 167L592 170L594 173L599 173L607 179L609 179L611 183L610 186L613 190L617 190L629 184L635 183L633 185L633 191L630 192L631 194L629 202L626 205L624 211L623 212L617 209L613 213L613 228L611 228L609 230L610 231L606 227L605 232L603 232L600 235L596 235L597 238L595 240L590 239L591 238L588 237L587 240L582 245L580 245L581 246L580 245L575 249M315 307L313 303L314 302L316 304L318 302L318 300L315 297L315 293L317 291L312 289L312 283L306 283L303 280L301 280L299 278L299 274L291 272L291 270L293 271M475 371L473 369L474 366L469 365L466 362L458 368L456 366L453 368L451 366L449 366L449 368L445 368L445 376L443 376L442 372L438 374L436 370L432 370L431 369L433 365L430 364L428 360L428 358L430 358L422 358L423 351L427 347L429 347L429 337L427 335L426 336L425 331L422 330L419 335L415 331L411 331L399 340L391 340L390 336L388 336L387 333L384 334L385 333L376 332L374 338L372 336L373 333L362 334L360 332L357 333L358 332L356 334L355 331L351 331L352 329L347 328L345 324L342 325L332 317L330 317L329 320L320 313L316 313L315 307M481 373L475 371M483 465L483 459M489 406L492 412M495 429L493 435M503 480L509 478M524 458L528 453M541 437L544 430M544 407L544 414M550 389L547 395M561 373L556 378M564 362L566 354" id="国界"/><path class="leaflet-interactive" stroke="#201920" stroke-opacity="1" stroke-width="2" stroke-linecap="butt" stroke-linejoin="round" stroke-dasharray="4,4" stroke-dashoffset="4" fill="none" d="M293 271L295 269L293 267L293 261L287 260" id="争议"/><path class="leaflet-interactive" stroke="gray" stroke-opacity="1" stroke-width="1" stroke-linecap="round" stroke-linejoin="round" stroke-dasharray="8,4,4,4" fill="none" d="M513 369L513 369M517 367L515 369L517 370L517 367" id="港澳"/><path class="leaflet-interactive" stroke="#4190da" stroke-opacity="1" stroke-width="1" stroke-linecap="round" stroke-linejoin="round" fill="none" d="M516 368L514 366L514 368L511 371L510 370L510 372L504 372L502 374L494 376L496 380L494 382L492 382L491 373L481 373M495 376L495 376M495 376L496 377L494 377L495 376M513 369L513 369M516 368L516 368M516 368L516 368M516 368L516 368M549 341L547 345L547 349L549 349L545 349L546 350L544 350L544 352L541 355L539 355L539 357L535 361L533 361L528 366L525 365L525 367L520 366L518 367L519 368L517 368L518 369L516 368M549 341L549 341M560 326L559 325L559 331L557 333L556 332L556 334L553 336L554 337L549 341M558 274L555 275L553 279L550 278L551 279L545 287L552 292L555 299L555 303L557 303L558 306L560 306L561 309L555 308L557 310M557 310L560 311L562 316L556 316L561 321L561 325M558 274L558 274M558 274L558 274M563 255L556 260L556 258L559 257L557 253L562 248L560 244L556 244L553 247L553 249L547 251L546 254L543 257L544 256L541 257L542 258L538 256L536 260L536 262L538 262L541 265L544 264L546 266L544 268L545 271L549 271L549 269L553 266L555 266L558 269L561 268L565 270L564 273L561 272L558 274M558 274L559 273L558 274M560 326L560 326M560 326L560 326M560 326L560 326M561 325L560 326M561 325L561 325M562 320L562 320M562 320L562 320M562 320L562 320M563 320L562 320M562 320L561 319L563 320M563 320L563 320M563 318L563 318M563 318L563 318M563 255L563 255M575 249L572 252L568 252L563 255M564 315L564 315M564 315L564 315M565 315L565 315M486 373L486 373M488 377L488 377M490 383L490 383M490 457L493 456L490 457M490 394L485 391L485 387L489 383L490 384L496 382L499 384L496 390L490 394M492 454L492 454M495 379L495 379M495 376L495 376M495 454L496 455L495 454M495 453L496 452L495 453M496 376L496 376M496 381L496 381M496 453L496 453M496 377L496 377M500 408L500 408M501 400L501 400M501 450L501 450M501 404L501 404M501 446L501 446M502 456L502 456M502 454L502 454M502 404L502 404M502 404L502 404M502 454L502 454M502 405L502 405M502 449L503 450L502 449M502 403L502 403M502 455L502 455M502 403L502 403M503 406L502 405L503 406M503 404L503 404M503 406L503 406M504 453L504 453M504 405L504 405M504 477L504 477M505 449L506 448L505 449M505 448L505 448M505 477L505 477M505 402L505 402M505 409L506 408L505 409M505 401L505 401M506 448L506 448M506 477L506 477M506 448L506 448M506 467L506 467M506 401L506 401M506 402L506 402M506 405L506 405M507 373L507 373M507 466L507 466M507 407L508 406L507 407M507 404L507 404M507 444L507 444M507 467L507 467M507 466L507 466M507 448L508 449L507 448M507 465L507 465M507 470L507 470M507 373L507 373M507 467L508 468L507 467M508 468L508 468M508 404L508 404M508 470L508 470M508 372L507 373L508 372M508 405L508 405M508 403L508 403M509 373L508 372L509 373M509 448L509 448M509 373L509 373M509 402L509 402M509 454L509 454M509 444L509 444M509 444L509 444M509 471L510 470L509 471M510 451L510 451M510 386L510 386M510 444L510 444M510 372L510 372M511 371L511 371M511 372L511 372M511 371L511 371M511 463L511 463M511 453L511 453M511 453L512 452L511 453M513 370L513 370M513 440L513 440M513 459L513 459M513 448L514 447L513 448M514 446L514 446M514 371L514 371M514 409L514 409M514 371L514 371M514 371L514 371M514 371L514 371M514 455L515 456L514 455M514 457L514 457M515 368L515 368M515 370L515 370M515 388L515 388M515 369L515 369M515 442L515 442M515 410L515 410M515 409L515 409M515 453L515 453M515 456L519 454L515 456M515 448L515 448M515 408L515 408M515 448L516 449L515 448M515 448L516 449L515 448M515 410L515 410M516 442L516 442M516 437L516 437M516 453L516 453M516 407L516 407M516 369L516 369M516 371L516 371M516 445L517 446L516 445M517 369L517 369M517 371L517 371M517 449L517 449M517 407L517 407M517 371L517 371M517 410L517 410M517 440L517 440M517 443L517 443M517 370L517 370M517 409L517 409M517 443L517 443M517 434L517 434M517 367L517 367M517 436L517 436M517 369L517 369M518 441L518 441M518 438L518 438M518 433L518 433M518 407L519 406L518 407M518 442L518 442M518 409L518 409M518 443L518 443M518 437L518 437M518 438L519 437L518 438M518 442L518 442M518 453L519 452L518 453M519 442L519 442M519 442L519 442M519 434L519 434M519 442L519 442M519 448L519 448M519 409L519 409M519 442L519 442M519 434L519 434M519 368L519 368M519 456L519 456M519 452L519 452M519 440L519 440M519 433L520 434L519 433M520 436L520 436M520 406L520 406M520 443L519 444L520 443M520 452L520 452M520 435L520 435M520 407L520 407M520 437L520 437M520 458L520 458M520 453L521 454L520 453M521 437L521 437M521 407L521 407M521 456L521 456M521 436L521 436M522 451L523 452L522 451M523 450L523 450M523 441L523 441M523 419L523 419M524 445L524 445M524 442L524 442M524 451L524 451M525 439L525 439M525 439L525 439M525 439L525 439M526 439L526 439M526 439L526 439M526 443L526 443M526 437L526 437M526 377L526 377M527 376L527 376M527 446L527 446M527 441L527 441M528 444L528 444M528 448L528 448M529 443L529 443M530 447L530 447M530 443L530 443M530 440L530 440M530 443L530 443M531 439L531 439M531 405L531 405M531 433L531 433M531 379L531 379M531 447L531 447M531 378L532 379L531 378M532 439L532 439M533 362L533 362M534 438L534 438M534 438L534 438M534 440L534 440M534 438L534 438M534 436L534 436M535 441L535 441M535 436L535 436M536 438L536 438M537 436L537 436M537 412L537 412M537 437L537 437M539 356L539 356M539 356L539 356M540 356L540 356M541 355L540 356L541 355M542 257L542 257M543 257L543 257M543 257L543 257M546 363L546 363M547 351L547 351M547 362L547 362M547 361L547 361M547 360L547 360M547 348L547 348M548 345L548 345M548 361L548 361M548 348L548 348M548 348L548 348M548 342L548 342M548 350L548 350M548 350L548 350M548 342L548 342M549 348L549 348M549 345L549 345M549 346L549 346M550 362L550 362M550 344L550 344M550 343L550 343M550 342L550 342M550 342L550 342M550 341L550 341M551 281L551 281M551 340L551 340M552 369L552 369M552 340L552 340M552 267L552 267M552 343L552 343M553 265L553 265M554 371L551 367L550 360L555 354L555 352L559 350L561 352L557 366L554 371M554 265L554 265M554 265L554 265M554 264L554 264M554 247L554 247M554 263L554 263M555 262L555 262M555 262L555 262M555 276L555 276M556 333L556 333M556 337L556 337M556 333L556 333M556 333L556 333M558 308L561 310L559 310L558 308M558 303L558 303M558 366L558 366M558 370L559 371L558 370M559 371L559 371M559 310L559 310M559 326L559 326M560 328L560 328M560 311L559 310L560 311M560 311L562 311L560 311M560 320L560 320M560 328L560 328M560 328L560 328M560 330L560 330M560 319L561 320L560 319M560 312L560 312M560 330L560 330M561 349L561 349M561 353L561 353M561 319L561 319M561 312L561 312M561 318L561 318M561 325L561 325M561 322L561 322M561 320L561 320M561 319L561 319M561 316L561 316M562 320L562 320M562 320L562 320M562 320L562 320M562 320L562 320M562 319L562 319M562 318L562 318M562 318L562 318M562 324L562 324M562 322L561 321L562 322M562 322L562 322M562 320L562 320M563 321L563 321M563 321L563 321M563 322L562 321L563 322M563 320L564 321L563 320M563 256L563 256M563 320L563 320M563 317L563 317M564 317L564 317M564 256L564 256M564 256L564 256M564 316L564 316M565 256L565 256M565 319L565 319M565 258L565 258M565 315L565 315M566 315L566 315M567 254L567 254M567 255L567 255M568 258L568 258M569 347L570 348L568 348L569 347M570 347L570 347M570 346L571 347L570 346M570 348L570 348M570 347L570 347M570 348L570 348M571 252L571 252M575 346L576 347L575 346" id="海洋"/><path class="leaflet-interactive" stroke="#747569" stroke-opacity="0.6" stroke-width="1" stroke-linecap="round" stroke-linejoin="round" fill="none" d="M377 279L375 277L364 276L358 278L354 282L351 281L346 284L339 283L339 281L331 285L325 283L322 286L322 288L320 290L316 290L317 291M423 303L421 303L421 305L418 306L419 307L417 307L417 309L415 307L415 309L412 309L410 305L409 306L409 304L405 302L401 304L390 301L388 299L382 299L378 295L379 294L377 294L377 279M393 257L380 261L380 263L382 263L382 267L386 270L386 272L383 273L383 275L385 275L385 279L379 277L379 279L377 279M446 296L445 297L445 295L444 296L440 292L448 292L449 291L447 287L449 283L452 282L451 283L453 279L450 272L451 271L447 267L442 266L437 261L437 263L434 262L429 257L425 259L420 256L418 258L419 261L417 261L417 263L414 264L412 262L406 262L404 259L402 260L396 256L393 257M415 230L413 232L414 236L412 236L409 239L409 237L407 237L400 245L396 246L392 256L393 257M460 269L455 266L455 262L460 258L458 254L453 257L448 256L448 258L444 260L441 257L441 255L433 251L437 248L436 244L434 243L429 246L426 246L426 243L422 240L424 238L420 229M431 325L430 315L428 312L429 311L427 309L426 304L423 303M446 296L445 299L442 298L443 301L441 303L437 303L436 300L434 302L431 299L429 299L427 293L424 292L421 295L423 297L421 301L423 303M425 332L429 331L428 328L430 328L431 325M466 335L465 332L461 334L460 329L458 329L458 331L455 332L456 335L452 337L453 344L450 343L446 345L440 333L438 335L436 333L437 332L435 328L433 328L432 331L431 330L431 325M467 301L465 303L462 302L460 300L460 296L456 294L455 295L453 291L451 291L451 293L448 294L450 296L447 299L446 296M479 266L473 262L476 257L474 255L469 259L468 267L460 269M460 269L462 269L462 271L463 270L466 273L466 281L467 280L472 285L472 281L475 280L475 278L472 275L474 273L473 272L477 271M466 335L466 337L461 336L456 339L457 342L462 343L460 347L463 350L462 354M462 354L462 356L463 355L466 358L467 357L471 359L471 361L467 363M490 346L487 347L487 349L486 348L481 351L479 351L476 348L476 350L470 354L467 352L462 354M472 330L470 328L468 330L472 333L470 335L466 335M477 271L477 273L485 277L485 283L481 285L480 284L479 287L474 286L472 290L474 290L472 294L473 295L470 296L470 300L467 301M484 305L481 306L478 303L477 304L475 302L472 303L470 301L467 301M489 330L487 332L483 328L483 326L480 327L480 325L478 325L478 327L476 327L473 330L473 328L472 330M472 330L472 328L466 324L466 322L469 321L467 319L469 317L471 319L474 318L474 320L476 319L479 316L478 315L482 313L484 305M477 271L479 266M499 255L499 253L496 256L494 254L494 256L492 256L491 259L487 262L488 265L486 265L486 267L483 268L479 266M484 305L490 309M490 309L493 310L494 313L489 317L486 316L483 321L485 321L487 323L486 324L488 324L488 326M488 326L489 330M515 326L513 322L510 324L509 321L507 323L503 320L502 321L498 319L495 322L492 321L488 326M490 346L489 338L486 339L490 335L489 330M504 354L502 354L501 351L499 353L498 352L501 347L500 344L498 344L499 343L494 346L490 346M498 298L490 298L492 300L491 301L494 302L490 304L490 309M492 374L491 374M492 374L491 373L501 365L501 361L504 358L504 354M492 382L493 382M493 382L495 382M495 289L495 273L497 269L496 264L500 256L499 255M495 289L496 293L499 296L498 298M495 289L504 286L504 284L509 285L513 283L514 277M495 381L496 381M523 311L516 308L514 304L504 304L498 298M499 299L499 299M516 245L513 248L507 248L504 251L504 253L499 255M504 354L505 351L509 353L511 349L515 349M524 278L521 279L514 277M514 277L513 274L516 267L513 260L516 257L518 257L519 254L518 251L515 250L518 248L516 245M528 321L524 321L520 323L521 324L517 324L515 326M515 349L517 345L515 345L515 337L513 337L513 335L517 331L515 326M515 349L520 350L516 354L517 355L521 355L523 353L525 355L526 352M545 240L544 241L539 238L540 235L537 230L533 232L531 236L525 236L522 239L519 234L515 240L516 245M528 289L528 291L530 291L531 294L528 295L524 293L525 296L523 296L521 300L522 303L526 303L527 306L523 311M528 321L526 317L527 314L523 311M538 263L535 266L531 266L528 270L527 269L527 271L523 275L524 278M528 289L524 289L524 287L520 285L527 279L523 281L524 278M526 352L528 346L531 343L530 340L534 338L533 335L541 331M534 361L532 359L532 355L526 352M539 324L534 321L532 323L530 319L530 321L528 321M529 289L528 289M546 286L545 285L539 291L538 288L534 290L532 286L529 287L529 289M548 312L544 312L540 306L543 303L544 304L545 301L544 300L540 302L539 298L538 299L539 296L529 289M535 249L535 245L533 245L530 242L530 244L529 243L530 244L528 244L528 246L525 247L526 248L524 252L526 254L532 253M536 260L533 261L531 259L532 253M532 253L532 253M532 253L534 253L534 250M534 250L531 251L532 253M534 361L534 362M535 249L534 250M535 362L535 363M535 249L537 251L535 251L537 254L538 253L538 256M539 324L543 322L543 318L545 318L546 315L547 316L548 312M539 324L538 325L541 328L541 331M552 339L552 337L548 337L548 335L546 337L543 336L543 332L541 331M545 240L545 234L547 232L550 237L558 231L559 232L561 230L568 229L571 225M549 250L547 246L543 244L545 240M555 313L553 315L548 312M554 339L554 339M554 262L556 262M561 309L556 308L557 309L555 313M557 315L555 315L555 313M557 315L558 315M569 196L567 198L563 192L566 189L568 189L568 187L570 187L574 182L574 184L576 184L575 183L577 177L580 176L579 171L583 165L584 160L580 155L578 155L579 156L576 158L568 158L565 154L566 149L562 147L560 149L557 146L560 141L558 139M559 315L559 315M560 315L561 315M561 315L562 314M563 314L564 314M565 314L565 314M614 224L609 223L609 219L601 223L598 220L598 216L596 216L595 219L592 216L593 215L589 213L590 212L588 210L585 211L582 208L574 208L572 205L572 201L568 202M568 202L567 199L570 198L569 196M568 202L565 205L566 206L564 204L559 205L562 208L562 216L564 218L568 216L567 217L571 225M569 196L568 195L569 196M569 196L569 196M569 196L569 196M571 225L572 224L575 227L575 229L577 227L581 235L580 238L582 240L582 244M469 283L469 283M490 341L490 341M509 321L509 321" id="省界"/><path class="leaflet-interactive" stroke="#3388ff" stroke-opacity="0" stroke-width="3" stroke-linecap="round" stroke-linejoin="round" fill="#eee" fill-opacity="0.5" fill-rule="evenodd" d="M535 246L536 245L532 245L531 242L529 244L530 245L525 247L526 248L524 252L526 254L530 254L532 252L531 251L535 249L535 246z" id="北京市"/><path class="leaflet-interactive" stroke="#3388ff" stroke-opacity="0" stroke-width="3" stroke-linecap="round" stroke-linejoin="round" fill="#eee" fill-opacity="0.5" fill-rule="evenodd" d="M537 255L538 254L535 251L537 251L535 249L533 251L534 252L531 254L531 260L536 261L536 259L538 258L537 255zM537 255L537 255z" id="天津市"/><path class="leaflet-interactive" stroke="#3388ff" stroke-opacity="0" stroke-width="3" stroke-linecap="round" stroke-linejoin="round" fill="#eee" fill-opacity="0.5" fill-rule="evenodd" d="M535 245L534 248L537 251L535 251L540 258L542 258L541 257L543 257L549 250L547 246L543 244L545 240L544 241L539 238L540 235L537 230L533 232L531 236L525 236L522 239L519 234L517 236L515 242L517 248L519 248L516 250L515 249L518 252L518 254L519 253L518 256L514 258L515 259L513 263L516 266L516 268L514 274L512 274L515 277L523 279L523 275L527 270L538 263L536 261L531 260L532 253L524 253L524 251L527 248L526 247L530 245L529 244L531 242L532 245L535 245zM534 250L531 251L533 253L534 250zM537 255L537 255zM543 257L543 257z" id="河北省"/><path class="leaflet-interactive" stroke="#3388ff" stroke-opacity="0" stroke-width="3" stroke-linecap="round" stroke-linejoin="round" fill="#eee" fill-opacity="0.5" fill-rule="evenodd" d="M495 289L504 286L504 284L508 285L513 282L513 274L516 269L513 261L519 253L518 254L518 252L515 249L516 250L518 248L517 245L515 247L514 246L513 248L507 248L504 251L504 253L502 253L498 258L499 259L496 264L496 282L494 289z" id="山西省"/><path class="leaflet-interactive" stroke="#3388ff" stroke-opacity="0" stroke-width="3" stroke-linecap="round" stroke-linejoin="round" fill="#eee" fill-opacity="0.5" fill-rule="evenodd" d="M420 229L424 238L422 239L426 246L429 246L430 244L431 245L434 243L436 244L437 248L434 251L441 255L443 259L447 260L448 258L446 257L452 257L458 254L459 255L460 257L455 262L455 266L457 266L459 269L469 266L469 260L474 255L476 257L473 263L478 264L482 268L484 268L487 265L488 261L494 255L497 256L499 253L499 255L501 255L501 253L503 253L506 248L508 249L514 247L516 245L515 240L519 234L522 239L525 236L530 236L532 232L537 231L539 233L538 234L540 236L540 240L545 241L547 233L550 236L550 238L554 233L564 229L568 229L571 226L568 223L570 223L569 218L567 216L564 218L562 216L562 209L561 206L559 206L560 203L562 205L566 205L568 201L567 198L568 199L570 197L568 195L569 196L567 198L563 192L566 189L568 189L568 187L570 187L574 182L574 184L576 184L575 183L577 177L580 176L579 171L583 165L584 160L580 155L578 155L579 156L576 158L568 158L565 154L566 149L562 147L560 149L557 146L560 141L556 139L550 144L550 146L554 146L554 152L550 154L549 159L545 165L546 168L537 174L531 171L527 179L526 185L524 186L527 190L529 188L533 188L535 190L537 187L541 187L548 193L549 197L547 199L543 197L535 199L535 201L532 200L527 207L523 209L520 208L513 214L507 211L503 212L501 216L504 221L502 224L500 224L490 232L477 232L462 238L462 236L459 237L448 234L446 231L430 231L420 229z" id="内蒙古自治区"/><path class="leaflet-interactive" stroke="#3388ff" stroke-opacity="0" stroke-width="3" stroke-linecap="round" stroke-linejoin="round" fill="#eee" fill-opacity="0.5" fill-rule="evenodd" d="M570 252L574 251L578 246L582 244L582 240L580 238L580 234L577 227L575 229L575 227L572 224L570 228L569 227L566 230L563 229L560 232L559 231L554 233L550 237L547 232L545 234L546 239L543 244L547 246L549 250L551 250L554 247L554 245L556 245L555 244L562 245L561 250L558 251L557 254L559 256L556 259L561 258L560 257L561 258L564 254L570 252zM565 256L564 255L565 256zM563 256L563 256zM565 256L565 256zM565 257L565 257zM567 254L567 254zM564 256L564 256zM554 247L554 247zM567 255L567 254zM568 258L568 257zM571 252L571 252z" id="辽宁省"/><path class="leaflet-interactive" stroke="#3388ff" stroke-opacity="0" stroke-width="3" stroke-linecap="round" stroke-linejoin="round" fill="#eee" fill-opacity="0.5" fill-rule="evenodd" d="M604 232L606 228L608 228L610 232L609 229L611 229L614 225L611 224L608 219L600 223L597 216L596 219L594 219L592 216L593 215L591 215L588 210L585 211L578 207L575 208L572 205L573 203L571 201L568 202L565 205L566 206L564 204L560 204L559 206L561 206L563 218L567 216L570 221L570 223L568 223L575 227L575 229L577 227L580 234L580 238L582 240L582 244L584 244L588 237L590 237L590 239L596 240L597 239L595 235L601 235L602 232L604 232z" id="吉林省"/><path class="leaflet-interactive" stroke="#3388ff" stroke-opacity="0" stroke-width="3" stroke-linecap="round" stroke-linejoin="round" fill="#eee" fill-opacity="0.5" fill-rule="evenodd" d="M570 202L571 201L573 203L573 207L578 207L584 211L587 210L590 212L589 213L593 215L592 216L595 219L595 217L598 216L600 223L608 219L609 222L613 224L614 219L612 213L618 209L623 212L624 211L626 205L629 202L631 194L630 193L634 189L632 187L636 183L632 183L620 189L613 190L610 186L611 183L609 179L607 179L603 174L602 175L600 173L597 174L593 172L593 168L591 166L592 165L589 160L589 156L587 154L587 150L584 144L580 140L577 141L572 137L563 137L559 139L560 142L556 146L559 147L559 149L563 147L565 149L567 158L576 158L579 155L582 157L584 161L579 170L580 175L576 179L576 185L575 186L574 183L563 192L567 198L569 196L568 195L570 197L568 199L567 198L567 200L570 202z" id="黑龙江省"/><path class="leaflet-interactive" stroke="#3388ff" stroke-opacity="0" stroke-width="3" stroke-linecap="round" stroke-linejoin="round" fill="#eee" fill-opacity="0.5" fill-rule="evenodd" d="M555 313L556 315L561 315L561 313L558 310L556 310L555 313zM561 309L556 308L558 310L561 310zM560 311L559 310L560 311zM560 311L562 312L560 311zM559 310L559 310zM561 312L561 312zM560 312L561 312z" id="上海市"/><path class="leaflet-interactive" stroke="#3388ff" stroke-opacity="0" stroke-width="3" stroke-linecap="round" stroke-linejoin="round" fill="#eee" fill-opacity="0.5" fill-rule="evenodd" d="M534 289L531 286L529 288L539 296L538 299L539 298L541 302L543 302L543 300L545 302L544 304L543 303L541 305L544 312L545 311L553 315L556 312L556 308L561 309L560 306L558 306L558 304L555 303L555 299L552 292L548 290L545 287L545 285L539 291L538 288L536 290L534 289z" id="江苏省"/><path class="leaflet-interactive" stroke="#3388ff" stroke-opacity="0" stroke-width="3" stroke-linecap="round" stroke-linejoin="round" fill="#eee" fill-opacity="0.5" fill-rule="evenodd" d="M541 331L543 331L543 336L546 337L548 335L548 337L552 337L552 339L554 334L556 334L555 333L559 331L559 325L561 325L561 321L555 313L553 315L548 312L547 316L546 315L546 317L543 318L543 322L539 325L541 331zM562 320L563 319L561 319L562 320zM562 319L562 319zM562 322L562 322zM563 315L564 315zM562 318L562 318zM563 318L563 318zM561 325L561 325zM563 321L564 320L563 321zM563 317L563 317zM560 328L560 328zM563 321L563 321zM560 326L560 326zM557 335L557 335zM561 315L562 316L561 315zM560 330L560 330zM562 322L562 322zM564 320L564 320zM564 316L564 316zM560 330L560 330zM561 319L561 319zM563 320L563 320zM560 320L560 320zM556 336L556 336zM561 325L561 325zM561 322L561 322zM561 319L561 319zM561 318L561 318zM562 320L562 320zM563 322L562 322zM556 334L556 334zM565 319L565 319zM563 318L563 318zM563 321L563 321zM565 315L565 315zM556 333L556 333zM556 333L556 333zM564 320L564 320zM566 315L566 315zM562 320L562 320zM561 320L561 320zM556 333L556 333zM564 320L564 320zM562 320L562 320z" id="浙江省"/><path class="leaflet-interactive" stroke="#3388ff" stroke-opacity="0" stroke-width="3" stroke-linecap="round" stroke-linejoin="round" fill="#eee" fill-opacity="0.5" fill-rule="evenodd" d="M530 293L531 294L528 295L526 293L524 294L525 295L523 299L521 299L521 301L524 304L525 303L527 306L523 310L527 314L526 317L528 321L530 321L530 319L532 323L534 320L540 324L543 321L543 319L546 318L548 313L546 311L543 312L543 310L540 307L542 303L545 302L543 300L543 302L541 302L540 299L538 299L539 296L530 289L528 289L530 293zM543 310L543 310zM531 322L531 322zM524 304L524 304z" id="安徽省"/><path class="leaflet-interactive" stroke="#3388ff" stroke-opacity="0" stroke-width="3" stroke-linecap="round" stroke-linejoin="round" fill="#eee" fill-opacity="0.5" fill-rule="evenodd" d="M544 352L543 351L545 351L545 349L549 349L547 349L549 344L548 342L550 342L549 343L552 338L547 335L545 337L543 335L543 331L541 331L533 335L534 338L530 341L530 345L527 348L526 353L530 355L531 354L532 359L534 361L539 357L539 355L542 355L542 353L544 352zM541 355L540 356L541 355zM547 351L547 351zM547 348L547 348zM550 345L549 344zM540 356L540 356zM549 341L549 341zM539 355L539 355zM549 345L549 345zM548 345L547 345zM550 343L550 342zM548 348L548 348zM548 342L549 342zM550 342L550 342zM552 340L551 340zM551 341L551 341zM548 342L548 342z" id="福建省"/><path class="leaflet-interactive" stroke="#3388ff" stroke-opacity="0" stroke-width="3" stroke-linecap="round" stroke-linejoin="round" fill="#eee" fill-opacity="0.5" fill-rule="evenodd" d="M539 324L534 321L532 323L530 319L530 321L524 321L520 323L521 324L517 324L515 326L517 330L513 336L515 338L515 344L517 344L515 349L520 350L516 354L517 355L521 355L523 353L525 355L526 354L528 346L530 345L529 344L533 336L541 331L538 325L539 324z" id="江西省"/><path class="leaflet-interactive" stroke="#3388ff" stroke-opacity="0" stroke-width="3" stroke-linecap="round" stroke-linejoin="round" fill="#eee" fill-opacity="0.5" fill-rule="evenodd" d="M529 289L529 287L532 286L534 290L538 288L539 291L545 285L546 286L551 279L550 278L553 279L555 275L563 273L565 269L559 269L554 266L551 267L548 271L546 271L544 269L546 266L543 264L541 265L539 263L537 263L535 266L531 266L523 275L523 281L527 279L520 285L525 289L529 289zM554 265L554 266zM554 265L554 265zM555 276L555 276zM554 264L554 264zM555 262L555 262zM551 281L551 281zM553 265L553 265zM554 263L554 263zM558 268L558 268zM558 268L558 268zM558 268L558 268zM524 280L524 280z" id="山东省"/><path class="leaflet-interactive" stroke="#3388ff" stroke-opacity="0" stroke-width="3" stroke-linecap="round" stroke-linejoin="round" fill="#eee" fill-opacity="0.5" fill-rule="evenodd" d="M508 304L514 304L516 308L523 311L524 310L527 306L526 303L522 303L521 300L526 293L528 295L531 294L530 291L528 291L528 289L524 289L522 286L520 286L527 279L523 281L524 278L521 279L515 277L511 284L505 284L505 286L495 290L499 297L498 298L502 303L506 305L508 304zM514 305L514 305z" id="河南省"/><path class="leaflet-interactive" stroke="#3388ff" stroke-opacity="0" stroke-width="3" stroke-linecap="round" stroke-linejoin="round" fill="#eee" fill-opacity="0.5" fill-rule="evenodd" d="M499 299L490 298L492 300L491 301L494 302L490 304L490 308L494 312L494 314L492 314L489 317L486 316L484 318L484 322L485 321L487 323L486 324L488 324L488 326L490 322L496 322L497 319L506 323L510 321L509 322L511 324L513 321L514 326L517 324L521 324L520 323L524 321L528 321L526 317L527 314L524 311L516 308L514 304L504 304L499 299zM488 316L488 316zM499 299L499 299zM508 304L508 304zM509 321L509 321z" id="湖北省"/><path class="leaflet-interactive" stroke="#3388ff" stroke-opacity="0" stroke-width="3" stroke-linecap="round" stroke-linejoin="round" fill="#eee" fill-opacity="0.5" fill-rule="evenodd" d="M504 354L505 351L509 353L511 349L515 349L517 345L515 345L516 342L515 337L513 337L513 335L517 331L513 325L513 321L510 324L509 321L507 323L503 320L502 321L496 319L495 322L493 321L489 323L488 328L490 336L488 336L486 339L490 339L489 344L492 347L493 344L493 346L495 346L498 343L500 347L501 346L498 352L499 353L501 351L502 354L504 353zM490 341L490 341z" id="湖南省"/><path class="leaflet-interactive" stroke="#3388ff" stroke-opacity="0" stroke-width="3" stroke-linecap="round" stroke-linejoin="round" fill="#eee" fill-opacity="0.5" fill-rule="evenodd" d="M513 369L514 366L516 368L525 365L528 366L533 361L533 357L531 355L532 354L526 352L525 355L523 353L521 355L517 355L516 354L520 350L519 349L511 349L509 353L505 351L503 357L504 358L501 361L501 365L491 373L492 382L496 380L494 376L497 374L498 375L510 370L511 371L513 369zM533 362L533 362zM509 372L508 373L509 372zM507 373L508 372L507 373zM517 371L517 370zM495 376L496 375L495 376zM507 373L507 373zM496 376L494 377L496 376zM514 371L514 371zM514 371L514 371zM511 372L511 371zM515 368L514 368zM517 371L517 371zM516 371L516 371zM531 378L532 378zM510 372L510 371zM495 379L495 379zM496 377L496 377zM496 381L496 381zM527 376L527 376zM526 377L527 377zM526 366L526 366zM526 366L526 366z" id="广东省"/><path class="leaflet-interactive" stroke="#3388ff" stroke-opacity="0" stroke-width="3" stroke-linecap="round" stroke-linejoin="round" fill="#eee" fill-opacity="0.5" fill-rule="evenodd" d="M490 346L487 347L487 349L486 348L481 351L478 351L477 348L476 351L475 350L471 352L471 354L467 352L461 354L465 356L465 358L471 358L471 360L468 363L470 365L475 366L473 368L474 371L481 374L491 374L493 371L495 371L495 369L497 369L497 367L501 365L501 361L504 358L504 354L502 354L501 351L499 353L498 352L501 347L499 343L494 346L490 346zM465 352L465 353zM488 377L488 377z" id="广西壮族自治区"/><path class="leaflet-interactive" stroke="#3388ff" stroke-opacity="0" stroke-width="3" stroke-linecap="round" stroke-linejoin="round" fill="#eee" fill-opacity="0.5" fill-rule="evenodd" d="M493 383L489 383L485 387L485 391L487 393L490 394L496 391L496 388L499 385L497 382L494 382zM505 477L505 477zM511 453L512 452zM504 477L504 477zM501 400L501 400zM537 412L537 411zM506 477L506 476zM503 406L503 405zM502 405L502 405zM515 456L519 454L515 455zM515 448L516 449L515 448zM515 449L515 449zM504 405L504 405zM503 404L503 404zM505 448L505 448zM514 457L515 457zM517 449L517 449zM505 401L506 401zM519 440L520 440zM526 443L526 443zM519 442L519 442zM514 455L515 455zM490 457L491 456L490 457zM528 448L529 448zM507 407L508 406L507 407zM507 448L508 448zM518 437L519 437zM506 405L507 405zM530 440L530 439zM506 401L506 401zM501 404L502 404zM524 442L524 442zM519 452L520 452zM518 453L519 452zM522 451L523 452L522 451zM515 453L515 453zM524 445L524 445zM530 447L530 447zM513 448L514 448zM519 436L520 436zM519 434L519 433zM521 437L521 437zM502 404L502 404zM515 448L515 449zM492 454L493 454zM531 433L531 433zM502 403L503 403zM507 404L507 404zM503 406L503 406zM515 442L515 441zM520 452L520 453zM530 443L530 443zM523 441L523 441zM532 439L532 439zM520 406L520 406zM527 446L527 446zM514 446L514 446zM519 456L520 456zM518 438L519 437zM537 437L537 437zM517 440L517 440zM519 433L520 433zM531 439L531 439zM495 453L496 452L495 453zM501 450L501 450zM523 450L523 450zM511 453L511 453zM516 436L516 436zM534 440L534 440zM517 407L517 406zM496 453L496 453zM524 451L524 450zM502 456L502 456zM502 449L503 450L502 449zM495 454L496 454zM506 448L506 448zM530 443L530 443zM504 453L504 453zM518 409L518 409zM521 436L521 436zM516 407L516 407zM527 441L527 441zM534 438L534 438zM520 458L520 458zM509 448L509 448zM502 455L502 455zM505 449L506 448zM507 466L507 466zM519 448L519 448zM520 453L521 453zM510 451L510 451zM513 459L513 459zM531 405L531 405zM535 441L535 441zM510 386L510 386zM518 407L518 406zM515 388L514 388zM508 470L508 470zM502 454L502 454zM506 448L506 448zM509 454L509 454zM507 467L508 467zM507 467L507 467zM523 419L523 419zM513 440L513 440zM515 410L515 410zM509 471L509 470zM507 470L508 470zM506 467L506 467zM505 402L505 402zM505 409L505 408zM508 468L508 468zM507 466L507 466zM511 463L511 463zM528 444L528 444zM521 456L521 456zM502 454L502 454zM515 408L515 408zM521 407L521 407zM531 447L531 447zM508 404L508 404zM500 383L500 383zM526 439L526 439zM534 438L534 438zM508 405L508 405zM526 439L526 439zM507 444L507 444zM519 409L519 409zM534 436L534 436zM537 436L537 436zM516 445L517 445zM520 443L520 444zM507 465L507 465z" id="海南省"/><path class="leaflet-interactive" stroke="#3388ff" stroke-opacity="0" stroke-width="3" stroke-linecap="round" stroke-linejoin="round" fill="#eee" fill-opacity="0.5" fill-rule="evenodd" d="M472 330L474 328L474 330L477 327L478 328L479 325L481 327L482 326L484 328L483 329L485 329L485 331L486 330L486 332L488 332L489 327L488 324L486 324L487 323L485 321L484 322L484 318L486 316L489 317L492 314L493 315L494 312L484 305L482 313L480 315L479 314L479 316L475 320L470 317L468 319L469 320L466 323L470 327L472 327L472 329zM488 316L488 316zM468 319L468 319zM488 316L488 316zM476 320L476 320z" id="重庆市"/><path class="leaflet-interactive" stroke="#3388ff" stroke-opacity="0" stroke-width="3" stroke-linecap="round" stroke-linejoin="round" fill="#eee" fill-opacity="0.5" fill-rule="evenodd" d="M443 338L442 339L444 343L448 345L453 343L452 338L459 329L461 329L460 330L462 334L464 334L465 332L466 335L470 335L472 333L469 332L468 329L472 329L472 327L470 327L466 323L470 317L475 320L479 316L478 315L482 313L484 305L481 306L478 303L472 303L470 301L467 301L465 303L462 302L460 300L460 296L456 294L455 295L453 291L449 293L450 296L447 299L446 296L445 299L442 298L443 301L441 303L437 303L436 300L434 302L431 299L429 299L427 293L424 292L421 295L423 297L421 301L427 306L427 308L430 311L428 311L431 320L431 330L432 331L434 327L437 331L436 332L438 334L440 333L440 335L443 338zM472 319L472 319zM476 319L476 319zM468 319L468 319z" id="四川省"/><path class="leaflet-interactive" stroke="#3388ff" stroke-opacity="0" stroke-width="3" stroke-linecap="round" stroke-linejoin="round" fill="#eee" fill-opacity="0.5" fill-rule="evenodd" d="M489 330L487 332L483 328L483 326L480 327L480 325L478 325L477 328L476 327L473 330L473 328L473 330L470 328L468 330L472 333L470 335L467 334L466 337L458 337L456 339L457 342L462 343L460 348L463 351L462 354L466 352L471 354L471 352L475 350L476 351L477 348L478 351L482 351L482 349L485 350L485 348L488 349L487 348L489 348L490 339L486 339L490 335L489 330zM490 340L490 340zM490 341L490 341z" id="贵州省"/><path class="leaflet-interactive" stroke="#3388ff" stroke-opacity="0" stroke-width="3" stroke-linecap="round" stroke-linejoin="round" fill="#eee" fill-opacity="0.5" fill-rule="evenodd" d="M466 335L465 332L463 334L461 333L461 329L457 330L458 331L456 331L456 334L452 338L453 343L447 345L444 342L441 335L438 334L434 328L432 330L433 331L431 331L431 325L430 328L428 328L429 331L428 332L426 330L425 333L426 336L427 335L429 337L429 347L427 347L423 352L422 358L430 358L428 358L428 360L430 364L431 363L430 364L433 365L431 369L436 370L438 374L442 372L442 374L446 376L446 368L450 366L453 368L455 366L463 366L464 363L468 363L471 360L471 358L465 358L466 357L461 354L463 352L461 348L463 343L461 341L457 341L459 337L466 337L466 335z" id="云南省"/><path class="leaflet-interactive" stroke="#3388ff" stroke-opacity="0" stroke-width="3" stroke-linecap="round" stroke-linejoin="round" fill="#eee" fill-opacity="0.5" fill-rule="evenodd" d="M377 279L375 277L365 276L357 278L356 281L350 281L345 284L341 284L338 281L336 281L332 285L328 283L324 284L320 290L316 290L317 291L314 293L318 301L317 304L315 304L315 302L313 304L313 306L316 309L316 313L322 314L322 316L329 320L330 317L332 317L342 325L345 324L347 328L352 329L351 330L357 334L357 332L359 334L359 332L363 334L373 333L372 336L374 338L375 334L378 331L388 334L388 336L390 336L392 340L399 340L411 331L415 331L419 335L422 330L426 332L426 330L428 332L428 328L430 328L431 325L431 320L426 304L422 303L420 305L421 306L417 308L418 309L414 307L415 309L412 309L410 305L409 306L409 304L405 302L401 304L380 297L378 295L379 294L377 294L377 279z" id="西藏自治区"/><path class="leaflet-interactive" stroke="#3388ff" stroke-opacity="0" stroke-width="3" stroke-linecap="round" stroke-linejoin="round" fill="#eee" fill-opacity="0.5" fill-rule="evenodd" d="M495 289L495 273L497 269L496 264L500 256L499 253L496 256L494 254L494 256L491 257L491 259L487 262L486 267L483 268L479 266L477 268L477 272L485 276L485 284L480 284L479 287L474 286L472 290L474 290L472 294L473 295L469 297L469 301L467 300L468 302L476 302L481 306L484 305L489 309L491 307L490 304L494 302L491 301L492 300L490 298L497 299L499 297L496 294L497 293L495 289zM499 297L499 297zM470 302L470 302z" id="陕西省"/><path class="leaflet-interactive" stroke="#3388ff" stroke-opacity="0" stroke-width="3" stroke-linecap="round" stroke-linejoin="round" fill="#eee" fill-opacity="0.5" fill-rule="evenodd" d="M473 281L472 284L469 283L469 281L466 280L466 273L463 270L462 271L462 269L455 266L455 262L460 258L458 254L453 257L446 257L447 260L441 258L441 256L438 253L433 251L437 248L437 244L434 243L429 246L426 246L426 243L422 240L424 238L420 229L415 230L413 232L414 234L412 237L408 237L400 245L396 246L392 256L396 256L402 260L403 259L405 262L411 262L414 264L417 263L417 261L419 261L418 258L420 256L425 259L429 257L434 262L436 263L436 261L443 266L448 267L447 268L450 271L453 280L451 280L452 283L451 282L447 288L449 291L448 292L444 292L441 290L440 291L444 296L445 295L445 297L447 297L447 299L450 296L448 293L452 291L454 295L455 294L460 296L460 300L462 302L467 302L467 300L468 301L470 299L468 297L473 296L473 286L480 287L481 284L485 284L485 276L474 271L472 275L475 278L475 280L473 281zM470 283L470 283zM452 277L452 277zM470 283L470 283zM473 281L473 281z" id="甘肃省"/><path class="leaflet-interactive" stroke="#3388ff" stroke-opacity="0" stroke-width="3" stroke-linecap="round" stroke-linejoin="round" fill="#eee" fill-opacity="0.5" fill-rule="evenodd" d="M452 277L450 272L451 271L447 267L442 266L440 263L436 261L437 263L435 262L430 257L427 257L425 259L419 256L419 260L415 264L412 262L406 262L404 259L402 260L397 258L397 256L380 261L380 263L382 263L382 267L386 271L383 274L385 276L384 279L379 277L379 279L376 280L378 280L376 284L376 287L378 287L377 294L379 294L378 295L383 299L387 299L401 304L405 302L409 304L408 305L410 305L412 309L414 309L414 307L418 309L417 308L421 306L420 305L422 303L421 300L423 298L421 294L424 292L428 295L429 299L431 299L434 302L436 300L437 303L441 303L443 301L442 298L444 299L446 298L446 296L445 297L445 295L444 296L440 292L449 291L447 287L449 283L452 282L452 277z" id="青海省"/><path class="leaflet-interactive" stroke="#3388ff" stroke-opacity="0" stroke-width="3" stroke-linecap="round" stroke-linejoin="round" fill="#eee" fill-opacity="0.5" fill-rule="evenodd" d="M477 271L479 265L473 263L476 258L475 255L473 255L470 258L468 267L460 269L462 269L462 271L463 270L466 273L466 279L472 285L472 281L475 280L475 278L472 275L474 273L473 272L477 271zM470 283L470 283zM470 283L470 283z" id="宁夏回族自治区"/><path class="leaflet-interactive" stroke="#3388ff" stroke-opacity="0" stroke-width="3" stroke-linecap="round" stroke-linejoin="round" fill="#eee" fill-opacity="0.5" fill-rule="evenodd" d="M415 230L409 217L408 218L396 211L386 211L383 208L385 203L385 197L380 189L374 187L368 182L368 180L366 180L367 177L361 177L361 181L359 183L355 183L354 185L354 195L345 196L340 193L335 205L337 209L331 209L322 212L324 214L324 218L327 225L324 228L326 228L323 230L324 233L320 237L319 236L309 243L306 242L302 246L302 248L298 248L297 246L293 247L290 250L289 249L285 256L288 261L291 260L293 262L292 263L294 269L291 270L291 272L295 272L299 275L300 280L307 283L311 283L312 288L317 291L316 290L320 290L325 283L331 285L337 281L339 283L346 284L350 281L356 281L357 278L365 276L384 279L385 276L383 274L386 271L382 267L382 263L380 263L380 261L392 258L396 246L401 244L407 237L409 237L409 239L414 235L414 230z" id="新疆维吾尔自治区"/><path class="leaflet-interactive" stroke="#3388ff" stroke-opacity="0" stroke-width="3" stroke-linecap="round" stroke-linejoin="round" fill="#eee" fill-opacity="0.5" fill-rule="evenodd" d="M552 368L553 371L555 371L555 367L558 364L561 352L559 350L553 355L550 360L551 367zM576 346L576 346zM569 347L569 347zM548 361L547 361zM571 346L571 346zM547 361L547 361zM547 362L547 362zM547 360L547 360zM561 348L562 348zM558 366L558 366zM558 370L559 370zM562 349L562 349zM546 363L547 363zM552 369L552 368z" id="台湾省"/><path class="leaflet-interactive" stroke="#3388ff" stroke-opacity="0" stroke-width="3" stroke-linecap="round" stroke-linejoin="round" fill="#eee" fill-opacity="0.5" fill-rule="evenodd" d="M516 368L515 369L518 368L516 368zM516 369L516 369zM517 368L517 368zM517 368L517 368zM517 368L517 368zM517 369L517 369zM517 368L517 368zM518 369L518 369zM517 369L517 369z" id="香港特别行政区"/><path class="leaflet-interactive" stroke="#3388ff" stroke-opacity="0" stroke-width="3" stroke-linecap="round" stroke-linejoin="round" fill="#eee" fill-opacity="0.5" fill-rule="evenodd" d="M513 370L513 370zM513 369L513 369z" id="澳门特别行政区"/><path class="leaflet-interactive" stroke="#3388ff" stroke-opacity="0" stroke-width="3" stroke-linecap="round" stroke-linejoin="round" fill="#eee" fill-opacity="0.5" fill-rule="evenodd" d="M564 362L566 355L564 362zM556 378L561 373L560 372L556 378zM547 395L550 389L547 395zM544 412L544 407L544 412zM542 435L541 437L544 430L543 432zM524 458L528 453L524 458zM506 479L503 480L509 478L507 479zM483 464L483 459L483 464zM494 434L493 435L495 429L494 433zM492 411L489 406L491 410z" id="100000_JD"/></g></svg>